<svg width="55" height="57" viewBox="0 0 55 57" fill="none" xmlns="http://www.w3.org/2000/svg">
<path d="M13.75 2.85V42.75H51.5625V4.275C51.5625 3.48799 50.793 2.85 49.8438 2.85H13.75ZM10.3125 2.85H8.59375C5.74603 2.85 3.4375 4.76398 3.4375 7.125V44.1745C4.87379 43.28 6.65911 42.75 8.59375 42.75H10.3125V2.85ZM0.519799 52.321C0.199149 52.0622 0 51.7004 0 51.3V7.125C0 3.18997 3.84755 0 8.59375 0H49.8438C52.6915 0 55 1.91398 55 4.275V52.725C55 55.086 52.6915 57 49.8438 57H8.59375C4.88407 57 1.72339 55.0512 0.519799 52.321ZM51.5625 45.6H8.59375C5.74603 45.6 3.4375 47.514 3.4375 49.875C3.4375 52.236 5.74603 54.15 8.59375 54.15H49.8438C50.793 54.15 51.5625 53.512 51.5625 52.725V45.6ZM22.3438 22.8C21.3945 22.8 20.625 22.162 20.625 21.375C20.625 20.588 21.3945 19.95 22.3438 19.95H42.9688C43.918 19.95 44.6875 20.588 44.6875 21.375C44.6875 22.162 43.918 22.8 42.9688 22.8H22.3438ZM22.3438 17.1C21.3945 17.1 20.625 16.462 20.625 15.675C20.625 14.888 21.3945 14.25 22.3438 14.25H36.0938C37.043 14.25 37.8125 14.888 37.8125 15.675C37.8125 16.462 37.043 17.1 36.0938 17.1H22.3438Z" fill="#E76F51"/>
</svg>
