<svg width="49" height="38" viewBox="0 0 49 38" fill="none" xmlns="http://www.w3.org/2000/svg">
<path fill-rule="evenodd" clip-rule="evenodd" d="M2.22727 3.67742H46.7727C47.3634 3.67742 47.93 3.48371 48.3477 3.13888C48.7654 2.79406 49 2.32637 49 1.83871C49 1.35105 48.7654 0.88336 48.3477 0.538535C47.93 0.19371 47.3634 0 46.7727 0H2.22727C1.63656 0 1.07003 0.19371 0.65234 0.538535C0.234645 0.88336 0 1.35105 0 1.83871C0 2.32637 0.234645 2.79406 0.65234 3.13888C1.07003 3.48371 1.63656 3.67742 2.22727 3.67742ZM2.22727 12.2581H30.4394C31.0301 12.2581 31.5966 12.0644 32.0143 11.7195C32.432 11.3747 32.6667 10.907 32.6667 10.4194C32.6667 9.9317 32.432 9.464 32.0143 9.11918C31.5966 8.77435 31.0301 8.58065 30.4394 8.58065H2.22727C1.63656 8.58065 1.07003 8.77435 0.65234 9.11918C0.234645 9.464 0 9.9317 0 10.4194C0 10.907 0.234645 11.3747 0.65234 11.7195C1.07003 12.0644 1.63656 12.2581 2.22727 12.2581ZM2.22727 20.8387H43.803C44.3937 20.8387 44.9603 20.645 45.378 20.3002C45.7957 19.9553 46.0303 19.4877 46.0303 19C46.0303 18.5123 45.7957 18.0447 45.378 17.6998C44.9603 17.355 44.3937 17.1613 43.803 17.1613H2.22727C1.63656 17.1613 1.07003 17.355 0.65234 17.6998C0.234645 18.0447 0 18.5123 0 19C0 19.4877 0.234645 19.9553 0.65234 20.3002C1.07003 20.645 1.63656 20.8387 2.22727 20.8387ZM2.22727 29.4194H39.3485C39.9392 29.4194 40.5057 29.2256 40.9234 28.8808C41.3411 28.536 41.5758 28.0683 41.5758 27.5806C41.5758 27.093 41.3411 26.6253 40.9234 26.2805C40.5057 25.9356 39.9392 25.7419 39.3485 25.7419H2.22727C1.63656 25.7419 1.07003 25.9356 0.65234 26.2805C0.234645 26.6253 0 27.093 0 27.5806C0 28.0683 0.234645 28.536 0.65234 28.8808C1.07003 29.2256 1.63656 29.4194 2.22727 29.4194ZM46.7727 34.3226H2.22727C1.63656 34.3226 1.07003 34.5163 0.65234 34.8611C0.234645 35.2059 0 35.6736 0 36.1613C0 36.6489 0.234645 37.1166 0.65234 37.4615C1.07003 37.8063 1.63656 38 2.22727 38H46.7727C47.3634 38 47.93 37.8063 48.3477 37.4615C48.7654 37.1166 49 36.6489 49 36.1613C49 35.6736 48.7654 35.2059 48.3477 34.8611C47.93 34.5163 47.3634 34.3226 46.7727 34.3226Z" fill="#E9C46A"/>
</svg>
