<svg width="60" height="60" viewBox="0 0 60 60" fill="none" xmlns="http://www.w3.org/2000/svg">
<path d="M30.0001 50.4C18.7201 50.4 9.6001 41.28 9.6001 30C9.6001 18.72 18.7201 9.6 30.0001 9.6C41.2801 9.6 50.4001 18.72 50.4001 30C50.4001 41.28 41.2801 50.4 30.0001 50.4ZM30.0001 12C20.0401 12 12.0001 20.04 12.0001 30C12.0001 39.96 20.0401 48 30.0001 48C39.9601 48 48.0001 39.96 48.0001 30C48.0001 20.04 39.9601 12 30.0001 12Z" fill="#2A9D8F"/>
<path d="M36.3598 40.44L28.7998 32.88V19.2H31.1998V31.92L38.0398 38.76L36.3598 40.44Z" fill="#2A9D8F"/>
</svg>
